<?xml version="1.0" encoding="UTF-8"?>
<svg width="157px" height="40px" viewBox="0 0 157 40" version="1.1" xmlns="http://www.w3.org/2000/svg" xmlns:xlink="http://www.w3.org/1999/xlink">
    <title>Group</title>
    <g id="Page-1" stroke="none" stroke-width="1" fill="none" fill-rule="evenodd">
        <g id="Artboard" transform="translate(-58.000000, -165.000000)" fill="#000000" fill-rule="nonzero">
            <g id="Group" transform="translate(72.000000, 171.000000)">
                <path d="M-4.608,24.318 C-4.122,24.192 -3.654,24.012 -3.168,23.85 C-3.15,23.922 -3.114,23.994 -3.078,24.12 C-2.538,24.066 -1.98,24.066 -1.44,23.958 C-0.27,23.76 0.882,23.508 2.034,23.238 C5.814,22.356 9.522,21.222 13.176,19.926 C13.464,19.818 13.734,19.62 14.022,19.476 C14.364,19.314 14.706,19.134 15.048,18.954 C15.084,18.936 15.156,18.972 15.264,18.99 L14.94,19.206 C15.012,19.224 15.084,19.206 15.156,19.188 C16.38,18.702 17.604,18.234 18.828,17.73 C21.582,16.56 24.264,15.282 26.802,13.716 C28.026,12.942 29.196,12.114 30.222,11.088 C30.906,10.386 31.482,9.612 31.734,8.604 C31.86,8.136 31.806,7.686 31.806,7.218 C31.842,6.192 31.482,5.364 30.672,4.734 C30.312,4.464 29.952,4.194 29.556,3.96 C29.124,3.69 28.656,3.456 28.188,3.24 C27.774,3.042 27.36,2.826 26.928,2.682 C25.542,2.178 24.12,1.818 22.68,1.494 C22.554,1.458 22.392,1.404 22.284,1.458 C22.122,1.548 21.96,1.476 21.798,1.476 C21.42,1.494 21.114,1.242 20.754,1.188 C19.764,1.008 18.792,0.792 17.802,0.648 C15.246,0.288 12.654,0.108 10.062,0.072 C7.668,0.018 5.256,0.036 2.862,0.252 C1.494,0.36 0.126,0.504 -1.224,0.648 C-1.656,0.702 -2.088,0.846 -2.52,0.882 C-3.87,1.026 -5.184,1.332 -6.444,1.854 C-7.002,2.07 -7.506,2.376 -7.92,2.826 C-8.136,3.06 -8.19,3.312 -8.154,3.618 C-8.082,4.032 -7.812,4.338 -7.614,4.68 C-7.542,4.644 -7.488,4.644 -7.434,4.626 C-7.344,4.446 -7.218,4.302 -7.092,4.104 C-7.002,4.266 -6.93,4.356 -6.858,4.464 C-6.552,4.176 -6.858,3.906 -6.768,3.564 C-6.588,3.456 -6.354,3.294 -6.12,3.204 C-5.742,3.06 -5.346,2.934 -4.95,2.844 C-3.15,2.43 -1.332,2.16 0.504,1.98 C2.952,1.746 5.4,1.638 7.866,1.638 C9.846,1.638 11.826,1.656 13.788,1.836 C15.048,1.962 16.29,2.088 17.532,2.16 C18.054,2.196 18.576,2.232 19.08,2.358 C19.368,2.43 19.638,2.52 19.926,2.574 C21.096,2.844 22.284,3.114 23.472,3.366 C24.156,3.51 24.84,3.636 25.524,3.762 L26.046,3.87 C26.028,3.996 26.01,4.05 26.01,4.104 C26.19,4.122 26.388,4.086 26.478,4.158 C26.91,4.5 27.432,4.608 27.9,4.842 C28.728,5.256 29.52,5.706 30.15,6.39 C30.6,6.858 30.69,7.38 30.528,7.974 C30.402,8.496 30.132,8.946 29.826,9.36 C29.106,10.314 28.224,11.07 27.252,11.718 C25.542,12.87 23.796,13.914 21.924,14.778 C19.278,16.038 16.578,17.154 13.824,18.162 C12.114,18.792 10.368,19.314 8.622,19.872 C8.406,19.944 8.172,20.016 7.938,20.07 L7.272,20.286 C7.038,20.34 6.804,20.412 6.588,20.484 C6.354,20.538 6.12,20.61 5.904,20.682 C5.67,20.736 5.436,20.808 5.22,20.862 C4.986,20.934 4.752,20.988 4.536,21.06 C4.32,21.132 4.104,21.222 3.906,21.312 C3.726,21.384 3.528,21.42 3.348,21.474 C2.592,21.708 1.818,21.87 1.026,22.068 C0.99,22.284 0.828,22.41 0.576,22.428 C-0.162,22.5 -0.882,22.662 -1.602,22.824 C-1.926,22.896 -2.25,22.896 -2.664,22.932 C-2.502,22.824 -2.43,22.752 -2.34,22.698 C-2.376,22.698 -2.412,22.68 -2.43,22.662 C-2.592,22.644 -2.754,22.608 -2.916,22.626 C-3.258,22.644 -3.6,22.716 -3.924,22.752 C-5.562,22.95 -7.2,23.076 -8.838,22.914 C-9.666,22.824 -10.494,22.68 -11.214,22.23 C-11.412,22.104 -11.628,21.996 -11.7,21.708 C-11.628,21.582 -11.556,21.42 -11.484,21.276 C-11.052,20.574 -10.422,20.052 -9.774,19.566 C-8.532,18.594 -7.146,17.892 -5.778,17.154 C-3.114,15.714 -0.342,14.49 2.43,13.248 C2.736,13.122 3.06,12.996 3.474,12.816 C3.348,13.086 3.276,13.248 3.186,13.41 L1.188,17.694 C1.098,17.91 0.972,18.144 1.044,18.45 L1.476,18.198 C1.512,18.486 1.548,18.72 1.566,18.954 C1.926,19.08 2.016,19.062 2.178,18.828 C2.286,18.666 2.358,18.468 2.448,18.288 C3.204,16.722 3.924,15.156 4.698,13.626 C4.95,13.104 5.148,12.564 5.58,12.15 C5.58,11.988 5.67,11.934 5.814,11.952 C5.94,11.88 6.03,11.79 6.156,11.754 C7.02,11.502 7.902,11.232 8.766,11.034 C9.378,10.89 9.99,10.746 10.602,10.818 C11.034,10.854 11.466,10.908 11.916,10.962 C11.844,10.89 11.79,10.818 11.736,10.746 C11.664,10.692 11.592,10.656 11.502,10.584 C11.808,10.422 11.97,10.638 12.132,10.692 L12.582,10.638 C12.672,10.404 12.744,10.152 12.834,9.918 C11.97,9.486 11.358,9.378 10.638,9.54 C10.71,9.612 10.782,9.684 10.836,9.756 L8.91,10.08 C8.19,10.206 7.47,10.332 6.732,10.44 C6.66,10.458 6.552,10.404 6.48,10.404 C6.48,10.314 6.48,10.278 6.498,10.26 C7.452,8.568 8.406,6.858 9.378,5.184 C9.558,4.878 9.864,4.626 10.134,4.374 C10.278,4.23 10.332,4.086 10.332,3.906 C10.188,3.906 10.08,3.906 9.9,3.888 C10.062,3.762 10.17,3.69 10.278,3.6 C10.26,3.528 10.26,3.42 10.206,3.384 C10.062,3.312 9.9,3.24 9.756,3.222 C9.486,3.186 9.36,3.384 9.288,3.6 C9.27,3.654 9.27,3.708 9.252,3.78 L9.468,3.78 C9.414,3.888 9.36,3.978 9.288,4.068 C9.072,3.834 8.946,4.14 8.766,4.14 C8.784,4.05 8.784,3.942 8.802,3.726 C8.388,4.266 8.046,4.716 7.722,5.166 C7.596,5.328 7.524,5.544 7.416,5.742 C7.254,6.12 7.074,6.498 6.894,6.876 C6.552,7.578 6.426,8.37 5.886,9 C5.454,9.522 5.166,10.152 4.734,10.674 C4.554,10.89 4.392,11.07 4.122,11.16 C2.934,11.628 1.728,12.078 0.54,12.582 C-2.448,13.842 -5.346,15.264 -8.154,16.848 C-9.072,17.37 -9.936,17.964 -10.8,18.558 C-11.826,19.26 -12.546,20.196 -12.942,21.366 C-13.158,21.996 -13.032,22.374 -12.51,22.752 C-12.024,23.094 -11.592,23.49 -11.106,23.886 C-11.592,24.012 -11.79,23.508 -12.204,23.454 C-11.97,23.778 -11.682,23.922 -11.376,24.03 C-11.25,24.084 -11.088,24.228 -10.944,24.012 C-10.908,23.958 -10.746,24.066 -10.782,24.174 C-10.584,24.192 -10.368,24.21 -10.17,24.264 C-9.9,24.336 -9.63,24.48 -9.342,24.516 C-7.758,24.696 -6.174,24.732 -4.608,24.318 Z M13.176,0.864 C13.734,0.864 14.202,0.828 14.67,0.864 C15.75,0.954 16.812,1.098 17.892,1.224 C17.928,1.224 17.964,1.278 18.036,1.332 C17.532,1.422 13.644,1.044 13.176,0.864 Z M5.868,21.582 C8.622,20.754 11.25,19.674 13.878,18.558 C13.914,18.54 13.986,18.576 14.04,18.576 C13.986,18.666 13.914,18.738 13.842,18.846 L14.202,18.846 C14.184,18.882 14.184,18.918 14.166,18.918 C13.572,19.224 12.96,19.53 12.366,19.818 C12.186,19.89 12.006,19.926 11.826,19.962 C10.242,20.43 8.676,20.898 7.092,21.348 C6.696,21.456 6.282,21.528 5.868,21.582 Z M35.3924082,9.522 C35.5724082,9.378 35.7704082,9.216 35.8964082,8.982 C35.9684082,8.802 35.8784082,8.64 35.8424082,8.478 C35.6444082,8.388 35.5184082,8.46 35.4104082,8.658 C35.3384082,8.37 35.2124082,8.208 34.9424082,8.172 C34.6544082,8.406 34.5644082,8.748 34.5464082,9.09 C34.5284082,9.162 34.6004082,9.27 34.6724082,9.288 C34.7084082,9.324 34.7984082,9.27 34.8884082,9.27 C35.0504082,9.54 35.2124082,9.666 35.3924082,9.522 Z M33.7004082,17.658 C33.7364082,17.64 33.7724082,17.604 33.8264082,17.568 C34.0244082,17.406 34.2584082,17.262 34.4744082,17.082 C34.5644082,16.992 34.6364082,16.848 34.7624082,16.704 C34.5104082,16.722 34.2764082,16.722 34.0784082,16.668 C34.0964082,16.488 34.3844082,16.434 34.2584082,16.308 L33.7184082,16.776 C33.7184082,16.776 33.7724082,16.776 33.8264082,16.812 C33.7184082,17.01 33.5564082,17.1 33.3044082,17.118 C33.2684082,17.064 33.2324082,17.01 33.2324082,16.956 C33.1064082,16.524 33.0524082,16.092 33.1064082,15.66 C33.1424082,15.318 33.1424082,14.976 33.2864082,14.652 C33.3044082,14.598 33.2864082,14.508 33.2864082,14.436 C33.2864082,14.238 33.2504082,14.022 33.3224082,13.86 C33.5204082,13.356 33.7724082,12.906 34.0244082,12.384 L34.0964082,12.582 C34.2404082,12.366 34.3484082,12.132 34.4744082,11.934 C34.5464082,11.808 34.6184082,11.718 34.7084082,11.628 C34.9244082,11.43 34.9424082,11.34 34.8344082,11.016 C34.7264082,10.962 34.6364082,11.016 34.5824082,11.124 C34.5464082,11.268 34.3844082,11.124 34.3124082,11.232 C34.2584082,11.304 34.1864082,11.376 34.1144082,11.448 L33.9164082,11.322 C34.1504082,11.124 34.3304082,10.998 34.5104082,10.836 C34.4204082,10.764 34.1504082,10.692 34.0784082,10.62 C33.8444082,10.836 33.6644082,11.106 33.5384082,11.376 C33.4124082,11.61 33.3224082,11.844 33.1964082,12.078 C32.6024082,13.158 32.0624082,14.256 31.9544082,15.498 C31.9184082,16.038 31.8644082,16.578 32.0624082,17.1 C32.3144082,17.82 33.0344082,18.036 33.7004082,17.658 Z M41.1208163,19.368 C41.4088163,19.08 41.4988163,18.81 41.4088163,18.45 C41.3548163,18.306 41.3908163,18.126 41.4268163,17.964 L41.6428163,17.118 C41.9488163,15.894 42.2548163,14.688 42.5788163,13.464 C42.7408163,12.834 42.5788163,12.258 42.2368163,11.754 C41.8048163,11.124 40.6888163,10.782 40.0048163,11.736 C40.0768163,11.772 40.1308163,11.808 40.2208163,11.88 C39.9508163,11.988 39.6988163,12.078 39.4288163,12.168 C39.4828163,12.006 39.5188163,11.934 39.5908163,11.736 L38.6188163,12.222 C38.6728163,12.006 38.7808163,11.79 38.9068163,11.61 C39.1048163,11.376 39.3748163,11.16 39.1408163,10.8 C39.1228163,10.782 39.2128163,10.692 39.2128163,10.62 C39.2128163,10.548 39.1948163,10.458 39.1768163,10.386 C38.9068163,10.8 38.6188163,11.124 38.3488163,11.52 C38.4208163,11.16 38.4928163,10.8 38.2948163,10.476 C38.4388163,10.332 38.5828163,10.206 38.7448163,10.062 C38.6368163,9.936 38.5828163,9.882 38.4748163,9.792 C37.9708163,10.314 37.6648163,10.926 37.3408163,11.538 C37.4308163,11.538 37.5028163,11.52 37.5388163,11.52 L37.0528163,12.438 C36.7108163,13.122 36.3148163,13.806 36.1528163,14.562 C36.0628163,14.922 35.9728163,15.282 35.9188163,15.642 C35.9008163,15.93 36.0448163,16.056 36.3148163,15.948 C36.4588163,15.894 36.5848163,15.75 36.6748163,15.642 C37.7548163,14.4 39.0328163,13.428 40.5268163,12.744 C40.7608163,12.636 40.9948163,12.546 41.3188163,12.6 C41.3368163,12.798 41.3728163,12.978 41.3548163,13.176 C41.3188163,13.392 41.2648163,13.626 41.1928163,13.824 C41.1928163,13.896 41.1568163,14.004 41.1028163,14.04 C40.8508163,14.292 40.8148163,14.634 40.7428163,14.94 C40.5808163,15.48 40.4368163,16.002 40.3108163,16.542 L39.8428163,18.468 C39.7708163,18.828 39.8608163,18.99 40.2028163,19.152 C40.2748163,19.188 40.3648163,19.206 40.4188163,19.278 C40.6348163,19.53 40.9048163,19.476 41.1208163,19.368 Z M47.8392245,18.72 C47.9832245,18.342 48.1452245,18 48.2532245,17.658 C48.5232245,16.758 48.7932245,15.876 49.0452245,14.976 C49.2252245,14.274 49.4052245,13.572 49.5132245,12.852 C49.6032245,12.258 49.4052245,11.718 48.9192245,11.322 C48.8472245,11.25 48.7392245,11.178 48.6672245,11.106 C48.5052245,10.944 48.3252245,10.872 48.1272245,10.962 L47.5557245,11.17575 C47.3667245,11.25 47.1822245,11.331 47.0112245,11.43 C46.5432245,11.718 46.1292245,12.06 45.6972245,12.384 C45.3912245,12.618 45.0852245,12.888 44.7972245,13.14 C44.7612245,13.122 44.7252245,13.104 44.7072245,13.086 L45.8952245,10.098 C45.8592245,9.954 45.8232245,9.81 45.7692245,9.648 C45.6072245,9.576 45.4452245,9.504 45.3012245,9.45 C45.2472245,9.306 45.1932245,9.198 45.1212245,9.072 C44.7972245,9.27 44.6712245,9.594 44.5452245,9.9 C44.3832245,10.296 44.2392245,10.692 44.0772245,11.088 C43.9332245,11.376 43.8792245,11.682 43.8612245,12.006 C43.8612245,12.222 43.7892245,12.456 43.7172245,12.672 C43.4112245,13.5 43.1052245,14.328 42.7812245,15.138 C42.6912245,15.39 42.6732245,15.606 42.7812245,15.804 C42.7092245,16.038 42.6372245,16.272 42.5832245,16.488 C42.4932245,16.794 42.5472245,16.938 42.7272245,17.01 C42.9432245,17.082 43.0872245,16.992 43.2132245,16.83 C44.0412245,15.696 45.0672245,14.724 46.0572245,13.734 C46.6152245,13.158 47.2452245,12.69 48.1092245,12.564 C48.0912245,12.762 48.0912245,12.942 48.0552245,13.122 C47.9652245,13.536 47.8572245,13.932 47.7492245,14.346 L46.9392245,17.226 C46.8672245,17.478 46.8132245,17.73 47.0292245,17.946 C47.1372245,17.82 47.2452245,17.676 47.3712245,17.514 C47.4612245,17.946 47.1192245,18.306 47.3892245,18.72 L47.8392245,18.72 Z M53.2616327,12.636 C53.7656327,12.132 54.3416327,11.7 55.0076327,11.322 L55.0616327,11.538 C54.7376327,11.88 53.9456327,12.384 53.2616327,12.636 Z M57.4196327,9.522 C57.2756327,9.45 57.1136327,9.378 56.9516327,9.288 C56.6996327,9.144 56.4476327,9.144 56.1956327,9.288 C55.7996327,9.504 55.4036327,9.72 55.0256327,9.972 C54.7196327,10.17 54.4136327,10.386 54.1076327,10.62 C53.9636327,10.728 53.8376327,10.854 53.7296327,11.016 C53.4596327,11.394 53.0996327,11.682 52.7216327,11.952 C52.2896327,12.222 51.8936327,12.546 51.5516327,12.924 C51.4796327,13.014 51.3536327,13.068 51.2456327,13.122 C50.9036327,13.338 50.5076327,13.32 50.1296327,13.302 L50.1476327,13.284 C50.0216327,13.392 49.8956327,13.482 49.7696327,13.572 C49.7516327,13.752 49.7516327,13.914 49.7336327,14.04 C50.0396327,14.472 50.4356327,14.184 50.7776327,14.202 L50.8136327,14.67 L50.8136327,14.67 C50.8316327,14.742 50.8496327,14.832 50.9036327,14.904 C51.0116327,15.048 51.1376327,15.21 51.2636327,15.354 C51.3536327,15.444 51.4256327,15.588 51.5336327,15.624 C51.9836327,15.768 52.1816327,16.182 52.5416327,16.434 C52.5056327,16.506 52.4696327,16.542 52.4336327,16.596 C52.8476327,16.74 53.2436327,16.938 53.6936327,16.938 L54.3416327,16.938 C55.1156327,16.938 55.8356327,16.74 56.5016327,16.344 C56.8616327,16.146 56.8616327,15.696 56.5196327,15.426 C56.3396327,15.282 56.1596327,15.156 56.0156327,15.066 C55.6376327,15.192 55.2956327,15.354 54.9536327,15.444 C54.6116327,15.552 54.2516327,15.588 53.8736327,15.66 C53.9276327,15.714 53.9456327,15.768 53.9996327,15.822 C52.6316327,15.714 52.0916327,15.282 52.0736327,14.328 C52.1456327,14.292 52.2536327,14.256 52.3436327,14.22 C53.1716327,13.86 54.0536327,13.572 54.8636327,13.104 C55.6916327,12.618 56.5016327,12.114 57.2036327,11.466 C57.4556327,11.232 57.6716327,10.98 57.8156327,10.656 C58.0496327,10.134 57.9416327,9.792 57.4196327,9.522 Z M58.8820408,17.316 C59.1520408,16.848 59.4400408,16.416 59.6560408,15.93 C59.7640408,15.696 59.9260408,15.462 60.1060408,15.246 C60.3760408,14.94 60.6820408,14.67 60.9340408,14.346 C61.1320408,14.13 61.2760408,13.878 61.4380408,13.644 L61.4380408,13.662 C61.9060408,13.23 62.3920408,12.816 62.9680408,12.51 C63.2200408,12.366 63.4720408,12.24 63.7240408,12.132 C63.7960408,12.096 63.9220408,12.042 63.9400408,12.06 C64.1020408,12.24 64.2820408,12.06 64.4440408,12.078 L64.5340408,12.096 L64.5340408,12.096 C64.6060408,12.222 64.6960408,12.33 64.7680408,12.438 C65.2360408,12.294 65.5600408,11.844 65.5600408,11.43 C65.5600408,11.268 65.5060408,11.178 65.3620408,11.124 C65.2720408,11.088 65.1460408,11.106 65.0920408,11.052 C64.9660408,10.908 64.8760408,10.728 64.7500408,10.602 C64.6780408,10.512 64.5700408,10.44 64.4620408,10.44 C64.2640408,10.422 64.0480408,10.44 63.8320408,10.494 C62.9860408,10.656 62.2300408,11.052 61.5820408,11.61 C61.4920408,11.682 61.3840408,11.754 61.2580408,11.844 C61.3660408,11.43 61.4560408,11.07 61.5460408,10.674 C61.3300408,10.638 61.1680408,10.62 61.0060408,10.584 C61.0240408,10.44 61.0240408,10.314 61.0420408,10.206 L60.4840408,9.936 C59.8540408,12.078 58.7560408,14.004 58.0000408,16.056 C58.0720408,16.38 58.1620408,16.686 58.2340408,16.956 L58.8820408,17.316 Z M61.8880408,11.664 C62.5720408,11.124 63.2740408,10.854 64.0300408,10.674 C64.2280408,10.638 64.4260408,10.548 64.6960408,10.764 C63.7420408,11.07 62.8600408,11.34 61.8880408,11.664 Z M60.0700408,15.012 C60.1240408,14.778 60.1240408,14.634 60.1960408,14.562 C60.5560408,14.166 60.8980408,13.752 61.3840408,13.464 C61.4020408,13.554 61.4200408,13.59 61.4380408,13.644 C61.3300408,13.716 61.2040408,13.752 61.1320408,13.824 C60.7900408,14.184 60.4840408,14.562 60.0700408,15.012 Z" id="Dinner"></path>
                <path d="M76.786,15.462 C76.66,15.84 76.462,16.182 76.228,16.506 C76.21,16.056 76.534,15.768 76.786,15.462 Z M76.228,16.506 C76.12,16.722 76.03,16.938 75.94,17.154 C75.886,17.316 75.76,17.496 75.922,17.694 C75.994,17.568 76.066,17.46 76.12,17.352 L77.632,14.31 C77.776,14.04 77.92,13.77 78.028,13.482 C78.19,13.032 78.352,12.582 78.028,12.132 C77.758,11.952 77.578,12.204 77.344,12.258 L77.074,11.646 C76.948,11.718 76.822,11.754 76.714,11.826 L75.832,12.528 C74.644,13.41 73.474,14.292 72.304,15.174 C71.98,15.426 71.638,15.624 71.206,15.858 C71.386,15.552 71.476,15.318 71.62,15.138 C72.142,14.526 72.592,13.86 73.258,13.392 C73.618,13.14 73.96,12.852 74.338,12.618 C75.004,12.168 75.706,11.718 76.39,11.286 C76.588,11.16 76.822,11.088 77.056,10.98 C77.11,11.088 77.128,11.142 77.164,11.196 C77.218,11.25 77.29,11.286 77.344,11.34 C77.434,11.286 77.524,11.25 77.596,11.214 C77.83,11.556 77.866,11.574 78.262,11.394 C78.478,10.908 78.37,10.512 78.01,10.152 C77.866,10.134 77.704,10.098 77.542,10.08 C77.56,9.954 77.596,9.864 77.614,9.774 C77.722,9.81 77.794,9.846 77.866,9.864 C77.632,9.594 77.38,9.342 77.002,9.45 C76.768,9.504 76.552,9.63 76.336,9.738 C76.12,9.846 75.94,9.99 75.724,10.044 C75.22,10.17 74.734,10.368 74.302,10.656 C73.096,11.484 72.034,12.474 71.08,13.572 C70.63,14.094 70.234,14.652 69.838,15.228 C69.514,15.732 69.316,16.308 69.298,16.938 C69.28,17.244 69.388,17.46 69.658,17.568 C70.198,17.784 70.756,17.874 71.314,17.586 C71.764,17.352 72.214,17.136 72.646,16.866 C73.456,16.362 74.266,15.84 75.058,15.138 C74.806,15.228 74.644,15.282 74.482,15.354 C74.41,15.462 74.32,15.534 74.176,15.48 C74.086,15.48 73.978,15.498 73.906,15.516 C74.05,15.282 74.086,15.264 74.266,15.318 C74.32,15.3 74.374,15.3 74.428,15.3 L75.976,14.202 C75.886,14.4 75.85,14.508 75.814,14.598 L74.968,16.254 C74.914,16.362 74.824,16.47 74.842,16.56 C74.932,16.92 74.734,17.19 74.644,17.514 C74.734,17.586 74.806,17.658 74.878,17.73 C74.986,17.676 75.058,17.64 75.112,17.604 L75.4,17.928 C75.562,17.604 75.688,17.334 75.814,17.064 C75.9065714,16.8788571 75.9726939,16.6804898 76.1370554,16.5595802 L76.228,16.506 L76.228,16.506 Z M82.4604082,18.09 C82.5144082,17.946 82.5684082,17.802 82.5864082,17.658 C82.8384082,16.146 83.3424082,14.688 83.8644082,13.23 C84.1704082,12.402 84.4944082,11.574 84.8364082,10.71 C85.4124082,10.656 85.9524082,10.602 86.4744082,10.566 C86.7984082,10.53 87.0504082,10.62 87.2304082,10.908 C87.3024082,11.016 87.4464082,11.142 87.5364082,11.124 C87.6624082,11.088 87.7344082,11.124 87.8244082,11.196 C88.0404082,11.394 88.2384082,11.34 88.4364082,11.142 C88.4004082,11.052 88.3644082,10.98 88.3644082,10.89 C88.3644082,10.8 88.4004082,10.71 88.4004082,10.62 C88.4004082,10.548 88.3824082,10.458 88.3464082,10.404 C87.8784082,9.756 87.3384082,9.234 86.5104082,9.126 C86.2404082,9.072 85.9704082,9.036 85.6644082,9 C85.7544082,8.82 85.8084082,8.658 85.8804082,8.514 C86.4204082,7.488 86.9244082,6.444 87.4824082,5.436 C87.8064082,4.842 88.2204082,4.266 88.5624082,3.672 C88.6704082,3.474 88.7604082,3.222 88.7784082,2.988 C88.7964082,2.664 88.5624082,2.484 88.2744082,2.394 C88.1844082,2.502 88.0944082,2.61 88.0044082,2.7 C87.9144082,2.556 87.8244082,2.448 87.7164082,2.286 C87.5904082,2.484 87.4824082,2.61 87.3924082,2.772 C86.4924082,4.41 85.6104082,6.048 84.7284082,7.686 C84.6024082,7.92 84.5124082,8.19 84.4044082,8.442 C84.4584082,8.424 84.5124082,8.388 84.5664082,8.37 C84.5664082,8.388 84.5844082,8.388 84.6024082,8.406 L84.4044082,8.622 C84.1524082,9.234 83.8464082,9.792 83.1264082,9.936 C83.0544082,9.954 83.0184082,10.008 82.9464082,10.026 C82.5144082,10.188 82.0644082,10.332 81.6324082,10.476 C82.0104082,10.152 82.5144082,10.026 82.8924082,9.63 C82.8024082,9.63 82.7484082,9.612 82.7124082,9.63 C81.9204082,9.918 81.0924082,10.17 80.3184082,10.512 C79.7964082,10.746 79.2564082,11.052 79.1484082,11.736 C79.1484082,11.754 79.1124082,11.79 79.0944082,11.808 C78.7524082,12.42 78.7704082,12.996 79.2204082,13.536 C79.3824082,13.716 79.5444082,13.896 79.6884082,14.094 C80.0124082,14.544 80.3544082,14.958 80.6244082,15.426 C81.0204082,16.092 81.2004082,16.848 81.1824082,17.622 C81.1824082,17.874 81.1644082,18.126 81.4884082,18.216 L81.6684082,18.09 C81.7044082,18.144 81.7404082,18.198 81.7944082,18.234 C82.0824082,18.486 82.3164082,18.432 82.4604082,18.09 Z M81.9204082,14.886 C81.3624082,14.13 80.8044082,13.392 80.2644082,12.654 C80.5884082,12.096 81.9024082,11.448 83.1084082,11.25 L81.9204082,14.886 Z" id="at"></path>
                <path d="M87.55,33.102 C87.712,33.048 87.91,33.048 88.09,33.012 L88.162,33.03 C88.108,33.084 88.036,33.138 87.982,33.174 C88,33.21 88,33.246 88.018,33.282 C88.504,33.228 88.972,33.192 89.458,33.12 C89.818,33.066 90.178,32.958 90.538,32.886 C91.096,32.796 91.654,32.742 92.194,32.616 C94.732,32.04 97.216,31.248 99.682,30.366 C102.328,29.412 104.92,28.386 107.476,27.198 C109.816,26.1 112.084,24.894 114.514,23.994 C114.964,23.832 115.396,23.598 115.828,23.364 C116.53,22.968 117.178,22.482 117.898,22.14 C118.69,21.78 119.014,21.15 119.212,20.412 L118.528,19.692 C117.916,19.728 117.898,20.286 117.574,20.718 C116.008,21.51 114.334,22.356 112.678,23.184 C113.182,23.04 113.686,22.86 114.19,22.662 C115.108,22.302 116.008,21.924 116.926,21.564 C117.07,21.51 117.196,21.42 117.43,21.492 C117.232,21.762 117.016,21.888 116.764,21.96 C116.584,22.014 116.404,22.05 116.242,22.122 C115.918,22.266 115.612,22.446 115.288,22.59 C115.072,22.68 114.838,22.824 114.622,22.806 C114.118,22.806 113.704,23.022 113.272,23.22 C113.092,23.292 112.894,23.328 112.714,23.4 C112.048,23.652 111.328,23.796 110.77,24.282 C110.482,24.534 110.122,24.696 109.726,24.75 C109.582,24.768 109.42,24.786 109.276,24.84 C108.484,25.11 107.674,25.362 106.9,25.686 C103.876,26.946 100.87,28.206 97.756,29.232 C97.432,29.34 97.108,29.502 96.784,29.646 C96.64,29.718 96.478,29.808 96.334,29.844 C95.758,29.97 95.164,30.078 94.588,30.222 L89.944,31.302 L88.792,31.572 C88.792,31.59 88.81,31.608 88.81,31.644 C88.972,31.626 89.152,31.608 89.422,31.59 C89.278,31.662 89.242,31.68 89.188,31.698 C88.432,31.878 87.658,31.968 86.902,31.968 C86.2,31.968 85.498,31.824 84.814,31.626 C83.968,31.392 83.464,30.15 83.59,29.538 C83.77,28.782 83.896,27.99 84.256,27.27 C84.418,26.928 84.544,26.586 84.724,26.19 C84.454,26.226 84.238,26.262 84.022,26.298 L84.086,26.11 C84.098,26.08 84.112,26.052 84.13,26.028 C84.274,25.758 84.436,25.506 84.562,25.236 C84.688,24.984 84.85,24.84 85.084,24.822 C86.488,22.734 88.162,20.916 89.71,18.99 C89.836,19.08 89.908,19.152 89.98,19.206 L88.198,21.366 C88.306,21.348 88.342,21.348 88.36,21.33 C88.468,21.24 88.576,21.132 88.684,21.024 C89.962,19.728 91.204,18.414 92.59,17.244 C95.164,15.084 97.882,13.14 100.906,11.646 C101.77,11.214 102.634,10.8 103.534,10.458 C104.272,10.17 105.046,10.008 105.82,9.81 C107.278,9.414 108.772,9.234 110.266,9 C110.95,8.892 111.112,8.694 111.112,7.956 C110.95,7.812 110.806,7.56 110.59,7.506 C110.212,7.38 109.798,7.29 109.402,7.29 C109.024,7.308 108.61,7.002 108.232,7.362 C107.71,7.344 107.17,7.416 106.666,7.308 C105.892,7.146 105.154,6.876 104.38,6.642 C104.29,6.606 104.164,6.534 104.11,6.57 C103.75,6.75 103.552,6.498 103.336,6.336 C103.318,5.85 103.39,5.598 103.75,5.202 C104.362,4.518 105.118,3.996 105.91,3.546 C106.702,3.096 107.548,2.754 108.394,2.394 C110.446,1.512 112.57,0.828 114.784,0.414 C114.046,0.45 113.344,0.594 112.642,0.774 C111.922,0.99 111.22,1.188 110.5,1.386 C111.22,0.99 112.012,0.774 112.804,0.558 C113.596,0.36 114.388,0.144 115.18,-0.054 C115.72,-0.198 116.242,-0.144 116.71,0.162 C116.53,0.792 116.53,0.81 116.008,1.224 C115.594,1.566 115.144,1.89 114.694,2.178 C114.37,2.394 114.046,2.592 113.812,2.916 L113.884,3.258 C114.226,3.042 114.496,2.826 114.802,2.664 C115.108,2.502 115.324,2.196 115.792,2.088 C115.288,2.772 114.55,2.934 114.028,3.384 C114.1,3.906 114.1,3.906 114.694,4.05 C113.65,5.85 113.056,7.776 112.858,9.864 C112.948,9.702 113.056,9.54 113.164,9.324 C113.182,9.576 113.2,9.774 113.2,9.972 C113.686,10.044 113.686,10.044 113.902,10.368 C113.938,10.332 113.992,10.296 113.992,10.26 C114.046,10.062 114.1,9.864 114.118,9.666 C114.316,8.226 114.784,6.858 115.45,5.58 C116.854,2.934 118.528,0.468 120.346,-1.89 C120.652,-2.286 121.012,-2.646 121.282,-2.97 C121.57,-3.006 121.75,-3.024 121.966,-3.042 C122.092,-3.402 122.218,-3.726 122.308,-4.014 C122.074,-4.572 122.074,-4.572 121.21,-5.022 C120.076,-3.564 118.636,-2.34 117.772,-0.702 C117.502,-0.756 117.286,-0.828 117.07,-0.846 C116.26,-0.9 115.432,-0.936 114.604,-0.936 C113.65,-0.954 112.732,-0.738 111.868,-0.378 C111.076,-0.054 110.302,0.342 109.528,0.666 C109.24,0.792 108.952,0.99 108.628,0.99 C108.682,1.026 108.718,1.08 108.772,1.134 C107.476,1.638 106.27,2.304 105.064,2.988 C104.434,3.348 103.84,3.798 103.372,4.374 C103.138,4.662 102.994,5.004 102.994,5.4 C102.994,5.868 102.94,6.336 102.904,6.858 C102.58,6.57 102.364,6.282 102.4,5.868 C102.418,5.76 102.4,5.67 102.418,5.562 L102.202,5.13 C101.716,5.778 101.752,6.462 102.31,7.056 C102.562,7.326 102.886,7.47 103.192,7.668 C103.642,7.938 104.11,8.172 104.614,8.316 C104.632,8.316 104.632,8.352 104.668,8.406 C104.56,8.46 104.452,8.532 104.308,8.622 C104.38,8.694 104.416,8.712 104.452,8.748 C103.48,9.414 103.174,9.576 102.706,9.594 C102.778,9.558 102.814,9.54 102.85,9.504 L103.03,9.288 C102.778,9.36 102.616,9.468 102.472,9.45 C101.986,9.36 101.608,9.594 101.212,9.774 C99.88,10.386 98.584,11.052 97.342,11.844 C97.108,12.006 96.766,12.096 96.694,12.312 C96.55,12.618 96.262,12.582 96.082,12.762 C95.974,12.87 95.794,12.888 95.65,12.978 C95.11,13.356 94.57,13.716 94.048,14.13 C93.13,14.85 92.248,15.606 91.348,16.344 C91.24,16.452 91.042,16.524 91.114,16.722 C91.042,16.902 90.952,17.046 90.772,17.136 C90.592,17.226 90.412,17.334 90.268,17.478 C89.692,17.982 89.098,18.468 88.576,19.008 C87.694,19.944 86.866,20.934 86.02,21.888 C85.876,22.05 85.75,22.212 85.66,22.392 C85.606,22.5 85.588,22.662 85.552,22.806 C85.3,23.13 85.048,23.49 84.778,23.832 C84.706,23.922 84.634,24.03 84.544,24.12 C84.364,24.318 84.148,24.516 84.004,24.75 C83.572,25.416 83.176,26.118 82.942,26.892 C82.888,27.09 82.798,27.27 82.726,27.45 C82.618,27.72 82.51,27.972 82.438,28.26 C82.366,28.566 82.348,28.89 82.276,29.196 C82.168,29.736 82.186,30.258 82.348,30.78 C82.636,31.698 83.212,32.292 84.112,32.58 C84.292,32.652 84.472,32.688 84.634,32.796 C85.552,33.39 86.524,33.426 87.55,33.102 Z M93.328,15.21 C93.31,15.192 93.292,15.156 93.274,15.12 C94.318,14.364 95.362,13.59 96.388,12.834 C96.442,12.888 96.46,12.888 96.46,12.906 C96.478,12.924 96.478,12.942 96.46,12.942 C95.488,13.662 94.516,14.4 93.526,15.12 C93.472,15.156 93.4,15.174 93.328,15.21 Z M86.056,32.994 C85.84,32.958 85.57,32.904 85.282,32.868 L85.282,32.76 C85.444,32.724 85.588,32.706 85.804,32.67 C85.678,32.598 85.588,32.562 85.498,32.526 C86.146,32.49 86.758,32.436 87.388,32.4 L87.388,32.562 L86.2,32.562 L86.056,32.994 Z M117.956408,9.522 C118.136408,9.378 118.334408,9.216 118.460408,8.982 C118.532408,8.802 118.442408,8.64 118.406408,8.478 C118.208408,8.388 118.082408,8.46 117.974408,8.658 C117.902408,8.37 117.776408,8.208 117.506408,8.172 C117.218408,8.406 117.128408,8.748 117.110408,9.09 C117.092408,9.162 117.164408,9.27 117.236408,9.288 C117.272408,9.324 117.362408,9.27 117.452408,9.27 C117.614408,9.54 117.776408,9.666 117.956408,9.522 Z M116.264408,17.658 C116.300408,17.64 116.336408,17.604 116.390408,17.568 C116.588408,17.406 116.822408,17.262 117.038408,17.082 C117.128408,16.992 117.200408,16.848 117.326408,16.704 C117.074408,16.722 116.840408,16.722 116.642408,16.668 C116.660408,16.488 116.948408,16.434 116.822408,16.308 L116.282408,16.776 C116.282408,16.776 116.336408,16.776 116.390408,16.812 C116.282408,17.01 116.120408,17.1 115.868408,17.118 C115.832408,17.064 115.796408,17.01 115.796408,16.956 C115.670408,16.524 115.616408,16.092 115.670408,15.66 C115.706408,15.318 115.706408,14.976 115.850408,14.652 C115.868408,14.598 115.850408,14.508 115.850408,14.436 C115.850408,14.238 115.814408,14.022 115.886408,13.86 C116.084408,13.356 116.336408,12.906 116.588408,12.384 L116.660408,12.582 C116.804408,12.366 116.912408,12.132 117.038408,11.934 C117.110408,11.808 117.182408,11.718 117.272408,11.628 C117.488408,11.43 117.506408,11.34 117.398408,11.016 C117.290408,10.962 117.200408,11.016 117.146408,11.124 C117.110408,11.268 116.948408,11.124 116.876408,11.232 C116.822408,11.304 116.750408,11.376 116.678408,11.448 L116.480408,11.322 C116.714408,11.124 116.894408,10.998 117.074408,10.836 C116.984408,10.764 116.714408,10.692 116.642408,10.62 C116.408408,10.836 116.228408,11.106 116.102408,11.376 C115.976408,11.61 115.886408,11.844 115.760408,12.078 C115.166408,13.158 114.626408,14.256 114.518408,15.498 C114.482408,16.038 114.428408,16.578 114.626408,17.1 C114.878408,17.82 115.598408,18.036 116.264408,17.658 Z M121.290816,15.678 C121.686816,15.48 122.172816,15.39 122.388816,15.462 C121.974816,15.768 121.830816,15.804 121.290816,15.678 Z M120.408816,15.822 C120.984816,16.416 121.668816,16.578 122.460816,16.29 C122.694816,16.2 122.910816,16.074 123.126816,15.984 C123.216816,15.93 123.306816,15.894 123.450816,15.822 C123.432816,15.948 123.432816,16.02 123.396816,16.074 C123.018816,17.028 122.676816,18 122.244816,18.936 C121.128816,21.276 119.688816,23.418 118.230816,25.56 C117.744816,26.262 117.096816,26.82 116.448816,27.378 C116.088816,27.702 115.638816,27.954 115.062816,28.008 C115.026816,27.81 114.972816,27.666 114.972816,27.504 C115.026816,26.514 115.152816,25.524 115.494816,24.57 C115.764816,23.796 116.016816,22.986 116.304816,22.212 C116.448816,21.834 116.664816,21.474 116.898816,21.15 C117.150816,20.772 117.492816,20.466 117.708816,20.052 C117.798816,19.854 117.978816,19.8 118.194816,19.8 C118.446816,19.782 118.698816,19.746 118.986816,19.728 C119.076816,19.26 119.076816,18.81 118.806816,18.414 L118.464816,18.36 C118.482816,18 118.194816,17.892 118.032816,17.694 C117.672816,17.73 117.492816,17.982 117.330816,18.216 C116.070816,19.944 115.080816,21.816 114.378816,23.85 C114.234816,24.282 114.144816,24.768 114.288816,25.254 C114.216816,25.38 114.144816,25.488 114.054816,25.614 L113.730816,26.064 C113.712816,26.424 113.640816,26.892 113.658816,27.342 C113.694816,28.206 113.964816,28.908 114.864816,29.304 C115.368816,29.52 115.836816,29.592 116.322816,29.34 C117.096816,28.944 117.780816,28.44 118.122816,27.594 C118.068816,27.558 118.014816,27.54 117.960816,27.522 C118.518816,26.856 119.040816,26.19 119.562816,25.542 C119.616816,25.56 119.652816,25.596 119.688816,25.614 C119.796816,25.488 119.850816,25.398 119.922816,25.29 C120.462816,24.444 121.038816,23.598 121.560816,22.734 C122.316816,21.474 123.000816,20.16 123.540816,18.792 C123.936816,17.784 124.332816,16.776 124.656816,15.75 C124.872816,15.102 124.872816,14.436 124.152816,14.04 L124.062816,13.986 C123.666816,13.644 123.630816,13.626 123.162816,13.878 C122.784816,14.094 122.406816,14.31 122.010816,14.526 C121.902816,14.58 121.794816,14.598 121.686816,14.634 C121.740816,14.436 121.812816,14.292 121.920816,14.184 C122.190816,13.932 122.442816,13.698 122.730816,13.464 C123.000816,13.248 123.288816,12.996 123.594816,12.834 C124.116816,12.564 124.638816,12.312 125.250816,12.402 C125.538816,12.762 125.448816,13.14 125.394816,13.5 C125.358816,13.698 125.286816,13.878 125.412816,14.022 C125.772816,13.95 126.060816,14.256 126.438816,14.022 C126.312816,14.256 126.132816,14.382 126.186816,14.616 C126.348816,14.4 126.456816,14.202 126.618816,14.04 C126.762816,13.896 126.582816,13.716 126.762816,13.536 C126.852816,13.446 126.780816,13.176 126.780816,12.978 C126.762816,12.366 126.510816,11.916 125.988816,11.61 C125.844816,11.52 125.700816,11.43 125.610816,11.304 C125.376816,11.016 125.070816,10.89 124.710816,10.926 C124.440816,10.944 124.188816,10.998 123.936816,11.016 C123.576816,11.052 123.270816,11.16 122.964816,11.34 C122.118816,11.862 121.434816,12.528 120.858816,13.32 C120.534816,13.77 120.246816,14.274 120.120816,14.85 C120.030816,15.264 120.084816,15.588 120.408816,15.84 L120.408816,15.822 L120.408816,15.822 Z M129.341224,19.476 C129.431224,19.35 129.503224,19.224 129.575224,19.044 C129.683224,19.206 129.773224,19.296 129.845224,19.458 C129.953224,19.206 130.025224,19.026 130.097224,18.828 L130.501224,17.532 C130.567224,17.316 130.631224,17.1 130.691224,16.884 C131.087224,15.462 131.465224,14.022 131.861224,12.6 C131.987224,12.078 132.095224,11.574 132.167224,11.052 C132.257224,10.53 132.113224,10.044 131.825224,9.612 C131.663224,9.396 131.537224,9.36 131.285224,9.396 L130.223224,9.576 C130.385224,9.414 130.475224,9.36 130.547224,9.27 C129.755224,9.396 129.305224,10.08 128.603224,10.548 C128.657224,10.368 128.675224,10.296 128.693224,10.206 L129.809224,7.272 L129.809224,7.272 C130.043224,6.696 130.241224,6.138 130.457224,5.58 C130.601224,5.274 130.781224,5.004 130.889224,4.698 C131.321224,3.654 131.753224,2.574 132.167224,1.512 C132.347224,1.044 132.491224,0.576 132.653224,0.126 C132.725224,-0.054 132.743224,-0.198 132.545224,-0.288 C132.095224,-0.234 132.131224,0.27 131.771224,0.558 C131.843224,0.342 131.879224,0.234 131.933224,0.144 C132.077224,-0.108 132.221224,-0.342 132.365224,-0.558 C132.491224,-0.738 132.455224,-0.882 132.311224,-1.08 C132.167224,-0.738 132.041224,-0.45 131.915224,-0.108 L131.753224,-0.378 C131.825224,-0.63 131.915224,-0.846 132.005224,-1.098 C131.861224,-0.99 131.753224,-0.882 131.699224,-0.72 C131.303224,0.252 130.871224,1.224 130.493224,2.214 C129.611224,4.428 128.783224,6.624 127.901224,8.838 C127.325224,10.35 126.677224,11.844 126.065224,13.338 C125.669224,14.328 125.273224,15.336 124.913224,16.29 C125.039224,16.83 125.435224,16.83 125.777224,16.956 C125.885224,16.758 125.993224,16.542 126.101224,16.326 C126.173224,16.362 126.209224,16.398 126.245224,16.416 L126.533224,15.966 C127.163224,14.958 127.757224,13.914 128.387224,12.906 C128.873224,12.132 129.377224,11.412 130.025224,10.764 C130.223224,10.584 130.421224,10.368 130.727224,10.35 C130.871224,10.602 130.871224,10.89 130.817224,11.178 C130.691224,11.808 130.601224,12.492 130.421224,13.14 C130.187224,14.004 129.899224,14.886 129.647224,15.768 L129.323224,16.884 C129.143224,17.496 128.945224,18.108 128.729224,18.702 C128.729224,18.774 128.747224,18.846 128.765224,19.008 C128.945224,18.612 129.107224,18.288 129.287224,17.91 C129.269224,18.162 129.269224,18.306 129.269224,18.54 C129.359224,18.27 129.449224,18.108 129.485224,17.928 C129.899224,16.614 130.295224,15.3 130.709224,13.986 C131.015224,12.996 131.321224,12.006 131.501224,10.98 C131.537224,10.782 131.483224,10.584 131.681224,10.44 C131.699224,10.8 131.735224,11.178 131.717224,11.538 C131.717224,12.294 131.465224,13.032 131.231224,13.752 C131.159224,14.004 130.979224,14.238 130.997224,14.508 C131.015224,14.904 130.799224,15.228 130.709224,15.57 C130.529224,16.164 130.313224,16.74 130.115224,17.316 C129.953224,17.784 129.863224,18.288 129.575224,18.702 C129.431224,18.882 129.359224,19.08 129.269224,19.278 C129.251224,19.332 129.269224,19.404 129.269224,19.476 C129.287224,19.476 129.323224,19.494 129.341224,19.476 Z M136.221633,18.09 C136.275633,17.946 136.329633,17.802 136.347633,17.658 C136.599633,16.146 137.103633,14.688 137.625633,13.23 C137.931633,12.402 138.255633,11.574 138.597633,10.71 C139.173633,10.656 139.713633,10.602 140.235633,10.566 C140.559633,10.53 140.811633,10.62 140.991633,10.908 C141.063633,11.016 141.207633,11.142 141.297633,11.124 C141.423633,11.088 141.495633,11.124 141.585633,11.196 C141.801633,11.394 141.999633,11.34 142.197633,11.142 C142.161633,11.052 142.125633,10.98 142.125633,10.89 C142.125633,10.8 142.161633,10.71 142.161633,10.62 C142.161633,10.548 142.143633,10.458 142.107633,10.404 C141.639633,9.756 141.099633,9.234 140.271633,9.126 C140.001633,9.072 139.731633,9.036 139.425633,9 C139.515633,8.82 139.569633,8.658 139.641633,8.514 C140.181633,7.488 140.685633,6.444 141.243633,5.436 C141.567633,4.842 141.981633,4.266 142.323633,3.672 C142.431633,3.474 142.521633,3.222 142.539633,2.988 C142.557633,2.664 142.323633,2.484 142.035633,2.394 C141.945633,2.502 141.855633,2.61 141.765633,2.7 C141.675633,2.556 141.585633,2.448 141.477633,2.286 C141.351633,2.484 141.243633,2.61 141.153633,2.772 C140.253633,4.41 139.371633,6.048 138.489633,7.686 C138.363633,7.92 138.273633,8.19 138.165633,8.442 C138.219633,8.424 138.273633,8.388 138.327633,8.37 C138.327633,8.388 138.345633,8.388 138.363633,8.406 L138.165633,8.622 C137.913633,9.234 137.607633,9.792 136.887633,9.936 C136.815633,9.954 136.779633,10.008 136.707633,10.026 C136.275633,10.188 135.825633,10.332 135.393633,10.476 C135.771633,10.152 136.275633,10.026 136.653633,9.63 C136.563633,9.63 136.509633,9.612 136.473633,9.63 C135.681633,9.918 134.853633,10.17 134.079633,10.512 C133.557633,10.746 133.017633,11.052 132.909633,11.736 C132.909633,11.754 132.873633,11.79 132.855633,11.808 C132.513633,12.42 132.531633,12.996 132.981633,13.536 C133.143633,13.716 133.305633,13.896 133.449633,14.094 C133.773633,14.544 134.115633,14.958 134.385633,15.426 C134.781633,16.092 134.961633,16.848 134.943633,17.622 C134.943633,17.874 134.925633,18.126 135.249633,18.216 L135.429633,18.09 C135.465633,18.144 135.501633,18.198 135.555633,18.234 C135.843633,18.486 136.077633,18.432 136.221633,18.09 Z M135.681633,14.886 C135.123633,14.13 134.565633,13.392 134.025633,12.654 C134.349633,12.096 135.663633,11.448 136.869633,11.25 L135.681633,14.886 Z" id="Eight"></path>
            </g>
        </g>
    </g>
</svg>