<?xml version="1.0" encoding="UTF-8"?>
<svg width="50px" height="50px" viewBox="0 0 50 50" version="1.1" xmlns="http://www.w3.org/2000/svg" xmlns:xlink="http://www.w3.org/1999/xlink">
    <title>Group Copy</title>
    <g id="Page-1" stroke="none" stroke-width="1" fill="none" fill-rule="evenodd">
        <g id="Artboard" transform="translate(-154.000000, -159.000000)" fill="#000000" fill-rule="nonzero">
            <g id="Group-Copy" transform="translate(154.000000, 163.500000)">
                <path d="M8.24206876,22.1643426 C8.81196236,22.0089171 9.38185596,21.8275873 9.95174955,21.6203533 C10.3921219,21.4649277 10.80659,21.2317895 11.1951538,21.0504597 C11.3764836,20.7655129 11.5578133,20.5064703 11.7391431,20.2474278 L11.324675,19.8329597 C10.8583985,20.0920023 10.3662176,20.3510448 9.87403679,20.5841831 C9.09690916,20.9209384 8.81196236,20.9727469 8.37159003,20.8432256 C11.6355261,19.2630661 14.6663239,17.4497683 17.3603663,15.0924811 L16.6868557,14.574396 C15.1066962,15.9473215 13.3711112,17.009396 11.6355261,18.0455661 C10.5734517,18.6931725 9.51137723,19.2630661 8.34568577,19.6257257 C7.0763773,20.0142895 5.80706883,20.1179065 4.5118561,19.8070555 C3.68291996,19.5998214 3.13893061,19.0558321 2.93169658,18.2787044 C2.7503668,17.6051938 2.64674978,16.905779 2.64674978,16.2322683 C2.72446254,14.6003003 3.13893061,13.0201408 3.83834549,11.5695025 C5.72935607,7.65796009 8.76015385,4.98982187 12.749409,3.38375809 C13.4229197,3.09881129 14.1223345,2.78796023 14.8994622,2.78796023 C14.9253664,2.78796023 14.9771749,2.76205598 15.0030792,2.73615173 C14.9512707,2.68434322 14.8735579,2.60663045 14.7440366,2.50301343 C15.4434515,2.06264111 16.1428664,2.34758791 16.816377,2.37349216 C17.4898876,2.42530067 18.1633982,2.5807262 18.8369089,2.68434322 C18.8369089,2.68434322 18.8110046,2.63253471 18.8110046,2.52891769 C19.7435578,2.76205598 20.5983982,3.09881129 21.0646747,3.87593892 L21.0646747,4.80849209 C20.9610577,4.70487507 20.8574407,4.62716231 20.7020152,4.49764103 C20.7279194,5.1452474 20.7279194,5.715141 20.4170684,6.2850346 C19.562228,5.37838569 18.6555791,4.70487507 17.4121749,4.67897081 L17.2567493,4.91210911 C17.1013238,4.88620485 16.9977068,4.83439634 16.8681855,4.80849209 C15.6506856,4.44583252 14.4072813,4.44583252 13.1897814,4.75668358 C11.1692495,5.27476867 9.38185596,6.2850346 7.85350494,7.73567285 C6.89504752,8.64232176 6.19563265,9.70439619 5.96249436,11.0514174 C5.85887734,11.724928 6.06611138,12.2430131 6.63600498,12.5797684 C7.30951559,12.9942365 8.00893047,13.3309918 8.86377086,13.2791833 C9.9258453,13.2273748 10.8843027,12.8906195 11.8168559,12.4243429 C12.6716963,12.0098748 13.4488239,11.5435983 14.2777601,11.0773217 C14.070526,11.8544493 13.8891962,12.631577 13.6819622,13.4087046 C13.8891962,13.6159386 14.0446218,13.7713642 14.2000473,13.9008854 C14.4849941,13.8490769 14.7181324,13.7713642 14.9512707,13.7195556 C15.288026,14.2117365 15.4693558,14.2894492 15.9097281,14.0822152 C16.2982919,13.8749812 16.6609515,13.6418429 16.9718025,13.3828003 C19.2254727,11.5954068 21.194196,9.60077917 22.3857917,6.93264096 C22.9038768,5.74104525 22.8520683,4.5753538 21.9454194,3.64280063 C21.6345683,3.30604532 21.4791428,2.91748151 21.2460045,2.55482194 C21.090579,2.2957794 20.9351535,1.98492834 20.7020152,1.77769431 C20.3652599,1.46684325 19.9507918,1.20780071 19.5363237,1.00056667 C17.6971217,0.0162050003 15.7283983,-0.0356035088 13.7337707,0.378864564 C11.5837176,0.819236891 9.6408985,1.77769431 7.87940919,3.07290703 C4.77089865,5.35248143 2.62084552,8.38327921 1.35153705,12.0098748 C0.729834944,13.7713642 0.367175381,15.5587577 0.548505162,17.423864 C0.678026435,18.848598 1.27382429,19.9883852 2.36180298,20.8950341 C3.16483487,21.594449 4.14919654,21.9312043 5.10765396,22.1384384 C5.72935607,21.8016831 6.32515392,21.6462575 6.89504752,21.9830128 C7.33541985,22.2420554 7.80169643,22.2679596 8.24206876,22.1643426 Z M8.16435599,10.9218962 C8.37159003,10.5074281 8.63063257,10.2483855 8.91557937,9.98934299 C10.8843027,8.17604518 13.1638771,7.08806649 15.7802068,6.69950267 C16.3760047,6.59588565 16.9718025,6.59588565 17.5676004,6.59588565 C17.9820685,6.59588565 18.3188238,6.77721543 18.5778663,7.13987499 C18.8110046,7.50253456 19.1218557,7.78748136 19.6917493,7.83928987 C19.0959514,8.51280048 18.6296748,9.10859834 18.0856855,9.60077917 C17.6712174,10.0152472 17.1272281,10.300194 16.5573345,10.5851408 L17.1013238,9.28992812 C16.7645685,8.82365154 16.2982919,8.79774728 15.8061111,8.77184303 C15.7024941,8.46099198 16.0651536,8.09833241 15.598877,7.81338561 C15.391643,7.91700263 15.080792,8.0465239 14.8217494,8.17604518 C13.7337707,8.82365154 12.6716963,9.49716216 11.5319091,10.09296 C10.5216432,10.6110451 9.43366446,10.9737047 8.16435599,10.9218962 Z M15.8579196,13.3309918 C16.1428664,12.5797684 16.8940898,12.3207259 17.4121749,11.8285451 C17.9302599,11.3363642 18.5001535,10.9218962 19.0441429,10.4556196 C19.6140365,9.98934299 19.8989833,9.26402387 20.7279194,8.82365154 C20.0544088,9.91163023 19.2254727,10.6369494 18.448345,11.414077 C17.6712174,12.1653004 16.919994,12.942428 15.8579196,13.3309918 Z" id="@"></path>
                <path d="M34.5003481,37.1485147 C39.1228184,32.4627229 38.5529248,27.6502881 36.2733504,22.7112102 C35.5134923,21.0648509 34.6269911,19.4184916 33.867133,17.8987754 C39.1228184,14.0361632 44.8850759,10.5534801 49.1909387,8.21058418 C49.8241538,7.89397663 49.8241538,7.38740454 49.2542602,7.07079698 C48.4310805,6.56422489 47.1013288,6.43758187 45.3283265,6.88083245 C45.7715771,0.675324365 39.8826765,-1.03435643 34.247062,1.18189645 C30.3844499,2.70161272 27.0284098,6.05765281 26.5218377,10.3635156 C26.2685517,12.1998394 27.0284098,14.4794138 28.041554,16.7589882 C23.8623342,20.1150283 20.1896866,23.9143189 18.2900413,27.3336805 C15.9471454,31.4495787 15.5038948,37.0851932 20.9495447,39.7446967 C24.6855139,41.5810205 31.2076295,40.5045548 34.5003481,37.1485147 Z M32.0941307,13.7828772 C31.6508801,12.5797684 31.3975941,11.4399812 31.3975941,10.3635156 C31.3975941,7.00747547 34.5003481,3.20818481 37.6031021,2.63829121 C40.5158916,2.13171912 41.6556788,5.10783014 41.4023928,8.40054871 C38.4896033,9.73030045 35.1968847,11.6299458 32.0941307,13.7828772 Z M22.2792965,37.5917653 C20.1263651,36.5152996 20.1896866,33.7924747 21.5194383,30.8796851 C23.0391546,27.5869666 26.2052301,24.167605 30.0045208,20.9382079 C30.8277005,22.5845672 31.5875586,24.167605 32.1574522,25.6873212 C33.9304545,30.6263991 32.1574522,33.1592595 30.0045208,35.4388339 C27.7882679,37.7817298 24.4322278,38.668231 22.2792965,37.5917653 Z" id="8"></path>
            </g>
        </g>
    </g>
</svg>